<?xml version="1.0" encoding="UTF-8"?>
<svg version="1.1" viewBox="0 0 1169 870" width="1169" height="870" xmlns="http://www.w3.org/2000/svg">
<path transform="translate(0)" d="m0 0h1169v870h-1169z" fill="#FEFEFE"/>
<path transform="translate(755)" d="m0 0h414v870h-761l4-4 14-10 10-9 5-4h2v-2l8-7 13-13 7-8 9-11h2l2-4 11-14 13-19 10-15 14-24 8-16 8-18 5-11 9-24 8-32 4-27v-26l-4-17-5-12-7-12-8-8-9-6v-2l60-25 11-5 13-5 28-12 4 2v2l4 1 12 5 3 1h12l9-3 10-6 6-5 8-10 7-11 5-10 12-6 20-8 15-7 43-18 39-16 16-6 12-5 20-8 37-13 27-9 35-9 23-4h12l1 2-13 6-8 3-3 4-1 6 3 6 4 2 9-1 14-6 11-8 7-8 2-6-1-8-5-6-8-3h-25l-29 6-29 8-38 13-29 11-8 3v-3l9-12 10-21 7-18 5-17 6-21 3-7 2 1 12 37 3 6 5 4 7 1 6-3 4-5v-10l-3-8-8-25-7-23-5-21-4-19-1-16-4-9-5-3-7-1-6 3-3 3-2 5-1 26-4 24-9 35-10 29-7 17-10 19-7 9-9-1-7-6-8-13-2-5-1-18-1-7-1-17-2-16-4-8-5-3-2-1h-10l-6 4-4 8-1 4v23l2 19 3 13v14l-2 25-4 16-6 1-12-3-11-6-13-9-11-9 1-23 1-12 1-25v-120l-2-67-3-73z" fill="#FEFEFE"/>
<path transform="translate(739)" d="m0 0h16l1 11 4 102 1 38v120l-1 25-2 29v6l15 12 15 9 10 4 12 1 2-11 2-16 1-14v-14l-3-13-2-19v-23l4-11 6-5 2-1h10l6 3 4 5 2 5 2 16 1 17 1 7 1 18 7 14 6 7 6 3h6l7-10 9-17 9-23 10-30 7-28 2-10 2-14 1-26 3-6 4-4 5-2 7 1 5 3 3 4 2 8 1 14 7 32 5 18 10 33 3 7 2 6v10l-6 7-5 2-9-2-5-5-13-38-2-4-6 20-5 18-10 26-9 19-9 12v2l12-5 17-6 12-5 40-13 30-8 21-4h25l8 3 6 7 1 8-3 8-9 9-13 8-13 5h-6l-6-4-2-5 1-6 5-6 12-4 7-4h-12l-23 4-28 7-31 10-26 9-26 10-16 6-20 8-34 14-52 22-24 10-13 6-6 2-2 6-9 15-11 13-10 7-8 4-5 1h-12l-13-5-6-3v-2l-4-1-36 15-11 5-24 10-39 16h-2v2l5 2 12 11 6 9 5 10 4 13 2 10v26l-4 27-6 25-7 20-8 21-7 15-8 16-10 18-12 19-15 22-10 13-6 8h-2l-2 4-12 13-7 8-14 14h-2v2l-10 8-11 9-14 10h-203l-4-8-4-12-2-10v-38l4-26 8-32 7-21 11-28 11-24 12-23 6-10 10-16 11-16 2-4-24 3-4 1-14 1-5 1h-39l-16-2-13-4-10-9-2-4v-11l6-9 11-9 16-9 23-10 19-7 29-9 23-6 1-18 2-13 6-21 9-22 11-18 10-14 12-14 16-16 11-9 13-10 22-13 24-11 5-2-2-6-5-11-4-14-2-13v-18l2-18 4-16 9-21 6-11 12-16 20-20 17-12 21-11 18-6 12-3 10-1h18l16 2 18 6 11 5 13 9 7 7 6 9 5 12 4 15 2 11v8l-5 9-5 4-4 2h-10l-8-4-4-5-4-10-3-17-4-9-8-7-14-7-7-2-11-1h-17l-16 3-16 6-16 9-11 8-13 12-10 13-9 17-4 11-2 8-2 14v17l4 18 6 12 2 3h10l14-2 10-1h23l24 2 12 2 16 5 12 6 5 4 4 6 2 5v7l-3 9-7 7-14 7-12 3h-35l-23-5-12-4-17-8-14-10-10 2-21 8-20 10-13 9h-2v2l-9 6-14 12-7 8-5 5-10 12-7 10-8 16-5 12-4 12-3 17-1 9 10-1 21-4 44-6 7-4 9-6 14-7 11-7 25-10 9-3h18l10 6 4 9v8l-4 10 27 5 13 3 23-9 16-6 42-17 15-6 11-5 12-5h3l-3-7-8-16-4-11-4-16-2-12-2-20v-40l3-15 5-13 9-10 7-4 10-4h24l35 10 8 2 7-3h8l4 1 2-17 3-51v-119l-2-58z" fill="#080808"/>
<path transform="translate(515,525)" d="m0 0 11 4 11 7 5 4v2h2l6 9 5 13 2 9 1 10v10l-2 18-5 24-6 20-10 26-7 14-8 17-10 17-22 33-10 13-9 11-9 10-7 8-16 16h-2v2l-11 9-12 10-24 16-18 10-7 3h-133l-8-9-5-11-4-16v-29l3-21 6-26 11-33 6-15 7-15 10-20 12-21 16-24 14-19 11-13 5-5 27-7 26-8 23-7 24-8 31-11 27-10 20-8 16-6z" fill="#FEFEFE"/>
<path transform="translate(661,327)" d="m0 0h9l49 14 4 8 7 8-1 11-7 24-6 16-10 21-10 5-24 10-4-1-6-9-4-10-4-14-2-13v-35l3-18 4-15z" fill="#FEFEFE"/>
<path transform="translate(755)" d="m0 0h2l3 60 2 52 2 91v17l-2 76-2 25v9l8 7 2 1v2l5 2 14 9 13 4h6l3-13 2-16v-26l-3-15-1-6v-36l4-9 3-1v-2l6-3h10l7 4 4 4 2 5 2 12 1 17 1 4 1 23 3 9 6 10 7 6 6 2 5-6 6-9 5-13h2l1-5 7-18 3-10 3-7 8-30 3-12 2-10 1-12 1-3 1-25 7-8 4-2h9l7 4 4 7 1 16 3 15 4 18 5 17 3 13 3 8 10 31v7l-4 7-3 3-4 1h-8l-7-4-4-6-3-10-8-23-1-1-10 34-7 20-7 15-7 13-3 4 5-1 18-7 15-5 8-3 26-9 14-4 16-4 14-3 12-2h25l10 5 4 5 2 5v6l-5 10-7 7-17 10-8 3h-11l-5-3-2-4v-10l5-6 10-3 5-1v-2l-17 2-12 3-9 2-23 6-8 3-12 3-7 3-20 7-10 3-6 3-10 3-24 10-14 5-12 5-15 6-11 5-13 5-13 6-5 2h-4v2l-13 5-13 6-10 4h-4v2l-10 4-9 3-2 6-4 8-7 10-2 3h-2l-2 4-5 5h-2v2l-15 8-6 1h-11l-13-5-7-4v-2l-6 1-25 11-25 10-11 5-20 8-11 5-11 4-1 2 8 7 7 7 7 11 4 10 2 6 2 9 1 23-1 18-2 12-1 2-1 9-5 17-4 14-6 16-5 12-8 18-8 16-9 16-10 16-7 11h-2l-1 4-14 20h-2l-2 5-2 3h-2l-2 4-9 11h-2v2h-2l-2 4-26 26h-2l-2 4-5 2v2l-11 8-4 3h-2v2l-6 3-2-1 11-8 9-7 13-11h2v-2l8-7 13-13 7-8 9-11h2l2-4 11-14 13-19 10-15 14-24 8-16 8-18 5-11 9-24 8-32 4-27v-26l-4-17-5-12-7-12-8-8-9-6v-2l60-25 11-5 13-5 28-12 4 2v2l4 1 12 5 3 1h12l9-3 10-6 6-5 8-10 7-11 5-10 12-6 20-8 15-7 43-18 39-16 16-6 12-5 20-8 37-13 27-9 35-9 23-4h12l1 2-13 6-8 3-3 4-1 6 3 6 4 2 9-1 14-6 11-8 7-8 2-6-1-8-5-6-8-3h-25l-29 6-29 8-38 13-29 11-8 3v-3l9-12 10-21 7-18 5-17 6-21 3-7 2 1 12 37 3 6 5 4 7 1 6-3 4-5v-10l-3-8-8-25-7-23-5-21-4-19-1-16-4-9-5-3-7-1-6 3-3 3-2 5-1 26-4 24-9 35-10 29-7 17-10 19-7 9-9-1-7-6-8-13-2-5-1-18-1-7-1-17-2-16-4-8-5-3-2-1h-10l-6 4-4 8-1 4v23l2 19 3 13v14l-2 25-4 16-6 1-12-3-11-6-13-9-11-9 1-23 1-12 1-25v-120l-2-67-3-73z" fill="#C0C0C0"/>
<path transform="translate(537,139)" d="m0 0h18l19 3 13 4 10 4v2l4 1 9 5 11 10 6 9 5 11 4 15 2 11v14l-4 6-5 5-3 2-9 1-8-1-8-6-4-7-4-20-3-12h-2v-2h-2v-2h-2v-2l-5-2-8-4-5-2-8-2h-31l-1 1-9 2-16 6-9 5h-3v2l-6 2v2l-9 6-7 7h-2v2h-2l-2 4-2 3h-2l-2 5-9 14-3 6-4 13-2 9-1 10v16l1 9 1 1 1 7 3 6v4h2l3 6h7l2-1 15-2h44l17 2 10 2 1 1 7 1 11 5 7 4 6 5 5 9v11l-3 8-5 6-12 7-13 4-14 1h-11l-18-1-19-4-14-5-14-7-11-6-4-4-10 2-12 4-11 5-14 7-13 8-5 2v2l-11 8-8 7h-2v2h-2v2l-5 5h-2v2h-2v2h-2l-2 5-10 12-6 9-8 16-5 11-3 12-1 1-2 11v12l2-1 9-1 13-3 26-4 25-4 7-5 6-2-5 5-7 4-4 2-30 4-24 4-15 3h-6l-1-3 2-15 4-16 6-15 7-14 7-11 11-14 5-6h2l2-4 9-9 14-11 5-2v-2l17-11 25-12 21-7 4 1 10 7 15 8 14 5 15 4 11 2h35l14-4 12-6 7-8 2-7v-7l-4-8-1-3-4-2-6-4-15-6-20-4-24-2h-23l-20 2-4 1h-10l-5-7-4-9-4-18v-17l2-14 5-16 8-17 12-16 9-9 10-8 13-8 16-8 17-5 8-1h17l11 1 12 4 12 7 8 9 4 16 2 10 5 10 6 4 3 1h10l8-5 5-9v-8l-4-19-5-15-5-9-10-11-13-9-24-9-9-2-11-1h-18l-14 2-15 4-15 6-17 9-11 8-9 7-18 18-12 17-9 19-4 10-4 16-2 18v18l3 16 4 13 4 9 2 6-10 5-16 7-20 11-11 8-14 11-13 12-11 11-9 11-7 10-10 16-5 10-7 17-4 13-2 8-2 13-1 18-9 3-32 9-26 9-24 10-20 11-11 9-5 8v11l4 6 7 6 13 4 16 2h39l5-1 14-1 15-2 3-1h10l-1 4-7 10-11 17-8 14-10 18-12 25-11 27-7 21-8 29-4 20-2 15v38l4 16 4 10 1 4-3-2-4-9-2-6-1-7-1-1-1-13v-20l1-18 2-13 3-12 5-21 7-22 9-24 8-18 15-30 6-11 9-15 16-24-17 2-3 1-14 1-3 1h-54l-12-2-12-5-8-7v-3h-2l-1-11 2-7 1-2h2l2-4 8-7 16-10 15-7 14-5 12-5 27-9 12-3 15-4h2l1-21 1-2 1-10 5-17 8-20 6-12 7-11 6-9h2l2-5 11-13h2l2-4 10-10 7-6h2v-2l11-8 4-3h2v-2h3v-2l9-5 10-6 12-6 8-3 9-4-6-13-4-13-2-11v-32l2-14 4-15 5-11 8-16 6-9 9-11 2-3h2l2-4 5-5h2v-2h2v-2l4-3h2v-2l6-4h2v-2h3v-2l10-6 18-9 16-5 15-3z" fill="#C0C0C0"/>
<path transform="translate(278,540)" d="m0 0 4 1 5 12 8 10 2 1v2l5 2v4l-5 3-23 4-41 5-26 1-29-2 1-4 10-7 17-8 22-9 28-9z" fill="#FEFEFE"/>
<path transform="translate(737)" d="m0 0 3 1 3 53 2 58v119l-3 51-2 17-3 1-2-1h-8l-8 3-24-7-18-5h-24l-13 5-10 9-4 8-4 11-2 12v40l2 20 4 21 7 20 8 16 1 5-25 10-11 5-65 26-21 8-17-4-23-4-1-2 4-9v-8l-3-9-10-5h-18l-25 9-12 6-11 6-8 5-3-1 9-6 30-15 17-6 7-1h11l10 3 6 7 2 4v13l-3 7 21 3 14 4 6-1 16-6 7-3 16-6 15-6 11-5 26-10 11-5 13-5 1-5h-2l-7-14-5-17-1-1-3-17-1-2-2-16-1-15v-27l1-12 4-16 6-11 5-6h2v-2l14-7 6-1h19l17 4 9 3 13 3 2 1h8l1-1h14l1-18 1-5 1-26 1-12v-133l-1-20-1-36-1-11-1-29z" fill="#C0C0C0"/>
<path transform="translate(515,525)" d="m0 0 11 4 11 7 2 3-5-2-10-6-4-2h-8l-19 8-15 5-12 5-18 7-10 3-6 3-10 3-35 12-13 4-23 7-14 4-13 3-10 3-4 5h-2l-2 4-4 6h-2l-2 4-3 5h-2l-2 5-10 14-1 2h-2l-1 4-11 17-6 11-11 21-5 12-5 11-7 18-3 11-3 8-7 28-2 11-2 21v10l2 18 5 13 10 15-4-2-6-7-5-11-4-16v-29l3-21 6-26 11-33 6-15 7-15 10-20 12-21 16-24 14-19 11-13 5-5 27-7 26-8 23-7 24-8 31-11 27-10 20-8 16-6z" fill="#C0C0C0"/>
<path transform="translate(422,518)" d="m0 0h4l-2 4-12 9-19 11-11 5-13 4-9 2h-4l2-4 13-11 10-7 14-10 7-2z" fill="#FEFEFE"/>
<path transform="translate(751,375)" d="m0 0 11 6 14 7 10 4-1 4-26 11-14 6h-3l2-10 3-11 3-16z" fill="#FEFEFE"/>
<path transform="translate(539,539)" d="m0 0 3 1v2h2l6 9 5 13 2 9 1 10v10l-2 18-5 24-6 20-10 26-7 14-8 17-10 17-22 33-10 13-9 11-9 10-7 8-16 16h-2v2l-11 9-12 10-24 16-18 10-7 3h-3v-2l12-5 10-6 7-4h3v-2l11-7h2v-2l6-4h2v-2l8-6 8-7h2v-2l8-7 4-4h2l2-4 12-12 9-11 3-4h2l2-5h2l2-4 9-13h2l2-5 16-24 1-3h2l1-4 11-20 4-8 5-13 6-13 6-17 7-27 2-9 1-11 1-3v-24l-3-12-6-15-3-4v-2h-2v-2h-2z" fill="#C0C0C0"/>
<path transform="translate(661,327)" d="m0 0h9l49 14 4 8 7 8-1 11-7 24-6 16-10 21-10 5-24 10-4-1-6-9-4-10-4-14-2-13v-35l3-18 4-15zm1 1-5 13-2 10-1 13-1 4v26l1 2 1 12 6 20 5 10h2l1 4 5-1 25-10 6-4 8-16 7-18 5-18 3-10v-8l-4-5h-2l-2-5-3-6-10-2-30-8-10-3z" fill="#C0C0C0"/>
<path transform="translate(278,540)" d="m0 0 4 1 5 12 8 10 2 1v2l5 2v4l-5 3-23 4-41 5-26 1-29-2 1-4 10-7 17-8 22-9 28-9zm-6 3-25 8-11 3-7 3-16 6-18 8-11 6-2 4 2 1h52l19-2 3-1 12-1 2-1 22-3 6-2v-3l-8-7-5-6-5-9-1-4z" fill="#C0C0C0"/>
<path transform="translate(339,527)" d="m0 0h5v3l-8 7-3 1v2l-5 4-6 7-5-1-8-6-4-6v-4l23-5z" fill="#FEFEFE"/>
<path transform="translate(422,518)" d="m0 0h4l-2 4-12 9-19 11-11 5-13 4-9 2h-4l2-4 13-11 10-7 14-10 7-2zm-12 2-13 2-14 10-12 9-10 8v1l7-1 13-4 12-5 16-9 9-6v-2l5-2v-1z" fill="#C0C0C0"/>
<path transform="translate(485,355)" d="m0 0h30l17 3 9 2-3 2-17 1-16-1-21-5z" fill="#C0C0C0"/>
<path transform="translate(751,375)" d="m0 0 11 6 14 7 10 4-1 4-26 11-14 6h-3l2-10 3-11 3-16zm0 4-3 16-3 11v4l5-1 7-3 17-7 10-4-2-3-13-5-11-6h-2v-2z" fill="#C0C0C0"/>
<path transform="translate(849,352)" d="m0 0 9 3 10 3v3l-11 5-10 4h-3l4-17z" fill="#C0C0C0"/>
<path transform="translate(339,527)" d="m0 0h5v3l-8 7-3 1v2l-5 4-6 7-5-1-8-6-4-6v-4l23-5zm-6 3-26 5 1 5h2l2 4 7 5 4-2 16-16v-1z" fill="#C0C0C0"/>
<path transform="translate(465,517)" d="m0 0 13 1 2 1v2l-23 8-2-1 7-8z" fill="#C0C0C0"/>
<path transform="translate(491,356)" d="m0 0h16l19 2 10 2v1h-27l-18-4z" fill="#FEFEFE"/>
<path transform="translate(849,355)" d="m0 0 6 1 10 4-4 2-12 5h-2z" fill="#FEFEFE"/>
<path transform="translate(916,317)" d="m0 0 1 3-10 19-5 5v-3l7-11z" fill="#C1C1C1"/>
<path transform="translate(1032,325)" d="m0 0h12l1 2-6 3-2-1 1-2-5 1h-7l1-2z" fill="#C1C1C1"/>
<path transform="translate(464,520)" d="m0 0h11l-3 2-7 3h-5z" fill="#FEFEFE"/>
</svg>
